Coordinates
version=1
nRows=13
nColumns=22
inDegrees=yes

Units are S.I. units (second, meters, Newtons, ...)
If the header above contains a line with 'inDegrees', this indicates whether rotational values are in degrees (yes) or radians (no).

endheader
time	pelvis_tilt	pelvis_list	pelvis_rotation	pelvis_tx	pelvis_ty	pelvis_tz	hip_flexion_r	hip_adduction_r	hip_rotation_r	knee_angle_r	ankle_angle_r	subtalar_angle_r	hip_flexion_l	hip_adduction_l	hip_rotation_l	knee_angle_l	ankle_angle_l	subtalar_angle_l	lumbar_extension	lumbar_bending	lumbar_rotation
      2.47000000	      2.67768594	     -2.00304924	      4.08746262	     -0.23968509	      0.89614169	      0.04251409	     24.03632749	      4.72150005	     -9.01477806	    -23.44746872	     -3.97305863	     -2.07829363	    -14.67696872	     -1.67277370	     -3.53863968	    -31.80466118	      4.39339173	      5.10767559	     -8.32535083	     -1.16498667	    -10.93602418
      2.48000000	      2.63193041	     -2.12393649	      3.97090510	     -0.22664417	      0.89711604	      0.04329707	     23.75867708	      4.99301342	     -8.86436362	    -24.40286144	     -3.82550633	     -2.79585266	    -13.83971318	     -1.96877711	     -3.32070585	    -34.21758684	      1.75176653	      5.70016326	     -7.95754025	     -1.00512361	    -10.50639377
      2.49000000	      2.61289694	     -2.22207799	      3.83623102	     -0.21379118	      0.89825688	      0.04406905	     23.38430511	      5.24331085	     -8.72010623	    -25.23504720	     -3.51508818	     -3.39811065	    -12.85761673	     -2.25040509	     -3.14062743	    -36.80526491	     -1.04071186	      6.22149506	     -7.64589944	     -0.86687340	    -10.06255498
      2.50000000	      2.62417040	     -2.31361503	      3.68700813	     -0.20118080	      0.89952776	      0.04483795	     22.91205344	      5.49165437	     -8.56963017	    -25.93884203	     -3.07367441	     -3.89541193	    -11.74149823	     -2.54220096	     -3.01633498	    -39.54087160	     -3.90521003	      6.64134742	     -7.40159408	     -0.73266717	     -9.60439277
      2.51000000	      2.66071834	     -2.40553742	      3.52797496	     -0.18884060	      0.90089002	      0.04561760	     22.33772306	      5.74493734	     -8.42300158	    -26.48982355	     -2.52256270	     -4.30454545	    -10.49632371	     -2.86318132	     -2.96962038	    -42.39252147	     -6.74624083	      6.94334907	     -7.22150896	     -0.60127815	     -9.12839896
      2.52000000	      2.74901080	     -2.52184528	      3.35797382	     -0.17678884	      0.90236027	      0.04641482	     21.64500895	      6.03381148	     -8.25684854	    -26.90248239	     -1.94394894	     -4.59832686	     -9.17961319	     -3.23765758	     -2.98447686	    -45.29326799	     -9.49963142	      7.11127347	     -7.13773296	     -0.44045469	     -8.65348368
      2.53000000	      2.83245871	     -2.66017745	      3.18611003	     -0.16502018	      0.90381126	      0.04722089	     20.89998539	      6.34455580	     -8.10320156	    -27.18765251	     -1.26413846	     -4.86564797	     -7.74554764	     -3.66209448	     -3.03987786	    -48.21253168	    -12.02026658	      7.17178730	     -7.08133863	     -0.26153725	     -8.15144973
      2.54000000	      2.98330694	     -2.81311135	      3.01308523	     -0.15353083	      0.90538208	      0.04805639	     20.01206465	      6.68039406	     -7.93463805	    -27.31259381	     -0.65211877	     -5.02223513	     -6.30705956	     -4.13787448	     -3.14424723	    -51.06815578	    -14.26935179	      7.20722737	     -7.13835055	     -0.07238606	     -7.66215026
      2.55000000	      3.14505433	     -2.97354709	      2.84719678	     -0.14228044	      0.90697964	      0.04888161	     19.04887470	      7.02185500	     -7.77242893	    -27.29891090	     -0.01967929	     -5.13777869	     -4.82739445	     -4.62686428	     -3.22018878	    -53.81128300	    -16.13106307	      7.23638491	     -7.23157663	      0.11519669	     -7.13200375
      2.56000000	      3.29415744	     -3.13471010	      2.68421506	     -0.13129466	      0.90852686	      0.04973755	     18.06462970	      7.36341421	     -7.60650240	    -27.19523139	      0.59496906	     -5.24970241	     -3.28414022	     -5.14045189	     -3.31673690	    -56.43203631	    -17.49925800	      7.25320251	     -7.33735281	      0.28846842	     -6.62631533
      2.57000000	      3.44760331	     -3.27224117	      2.52855989	     -0.12052483	      0.91008605	      0.05058910	     17.03235725	      7.67747857	     -7.43390774	    -26.99283247	      1.20275782	     -5.33814029	     -1.72736797	     -5.62385688	     -3.37885659	    -58.86121141	    -18.36455423	      7.28903920	     -7.46585255	      0.42127535	     -6.12125867
      2.58000000	      3.60299260	     -3.37061161	      2.38106291	     -0.10993880	      0.91166376	      0.05141645	     15.95852759	      7.94597855	     -7.24734282	    -26.70264418	      1.77146145	     -5.40391123	     -0.17146471	     -6.04948479	     -3.40292589	    -61.06118135	    -18.72617833	      7.34457313	     -7.60754574	      0.49821455	     -5.60801460
      2.59000000	      3.74597989	     -3.42687284	      2.23378423	     -0.09952782	      0.91323486	      0.05224072	     14.86952742	      8.16777748	     -7.03729372	    -26.34438615	      2.29661817	     -5.45833653	      1.38945911	     -6.40966661	     -3.40017431	    -63.01161020	    -18.60662734	      7.38353159	     -7.74440344	      0.51150308	     -5.10079983
